# xmcd CD database file
#
# Track frame offsets:
#	150
#	11302
#	23447
#	34457
#	45439
#	60542
#	70695
#	84267
#	96915
#	110180
#	120595
#	132542
#
# Disc length: 1928 seconds
#
# Revision: 0
# Processed by: cddbd v1.4PL0 Copyright (c) Steve Scherf et al.
# Submitted via: CDex 1.40Release
#
DISCID=9507860c
DTITLE=Various Artist - Country Pride - Country Style
DYEAR=2000
DGENRE=Country
TTITLE0=Conway Twitty - Hello Darlin'
TTITLE1=Merle Haggard - Workin' Man Blues
TTITLE2=Roger Miller - King Of The Road
TTITLE3=Bill Anderson - Wild Weekend
TTITLE4=Ed Bruce - Mamma's Don't Let Your Babies Grow Up To Be Cowboys
TTITLE5=The Kendalls - I Had A Lovely Time
TTITLE6=T. Graham Brown - I Tell It Like It Used To Be
TTITLE7=Lee Greenwood - Touch And Go Crazy
TTITLE8=Ray Kennedy - What A Way To Go
TTITLE9=Patsy Cline - Walkin' Dream
TTITLE10=Willie Nelson - Night Life
TTITLE11=Merle Haggard - Okie From Muskogee
EXTD=YEAR: 2000 ID3G: 2
EXTT0=
EXTT1=
EXTT2=
EXTT3=
EXTT4=
EXTT5=
EXTT6=
EXTT7=
EXTT8=
EXTT9=
EXTT10=
EXTT11=
PLAYORDER=
